# xmcd
#
# Track frame offsets: 
#        150
#        57256
#        81260
#        118192
#        196920
#
# Disc length: 2920 seconds
#
# Revision: 3
# Processed by: cddbd v1.5.2PL0 Copyright (c) Steve Scherf et al.
# Submitted via: ExactAudioCopyFreeDBPlugin 1.0
#
DISCID=3f0b6605
DTITLE=Wyrd - Vargtimmen Part I
DYEAR=2003
DGENRE=Metal
TTITLE0=The Lonely Sea
TTITLE1=Autumn
TTITLE2=Vargtimmen
TTITLE3=Sad Song Of The Woods
TTITLE4=Outro
EXTD=
EXTT0=
EXTT1=
EXTT2=
EXTT3=
EXTT4=
PLAYORDER=
